<svg width="305" height="51" viewBox="0 0 305 51" fill="none" xmlns="http://www.w3.org/2000/svg">
<path d="M21.07 41.86C20.79 43.0733 20.44 44.1933 20.02 45.22C19.6 46.2 19.04 47.0633 18.34 47.81C17.64 48.51 16.7533 49.0467 15.68 49.42C14.6533 49.84 13.4167 50.05 11.97 50.05C9.68333 50.05 7.86333 49.5133 6.51 48.44C5.20333 47.32 4.55 45.5467 4.55 43.12V23.17H0L0.28 21.07C2.42667 20.65 4.15333 19.4367 5.46 17.43C6.76667 15.3767 7.7 13.02 8.26 10.36L10.43 10.08V20.51H15.96C16.6133 20.51 17.1967 20.4633 17.71 20.37C18.27 20.23 18.76 20.09 19.18 19.95V23.17H10.43V41.58C10.43 42.14 10.4533 42.7 10.5 43.26C10.5467 43.7733 10.6633 44.2633 10.85 44.73C11.0833 45.1967 11.4333 45.57 11.9 45.85C12.3667 46.13 13.02 46.27 13.86 46.27C15.2133 46.27 16.4267 45.8033 17.5 44.87C18.5733 43.9367 19.2267 42.7467 19.46 41.3L21.07 41.86ZM23.0912 49V46.9C26.1246 46.9 27.6413 45.57 27.6413 42.91V28.21C27.6413 24.85 26.0313 23.17 22.8113 23.17V21.28C24.5846 20.9067 26.3579 20.5567 28.1313 20.23C29.9513 19.8567 31.7246 19.4833 33.4513 19.11V25.83L33.8013 26.11C33.9413 25.5033 34.2446 24.8033 34.7113 24.01C35.2246 23.2167 35.8313 22.47 36.5313 21.77C37.2779 21.0233 38.0946 20.3933 38.9813 19.88C39.8679 19.3667 40.8013 19.11 41.7813 19.11C45.3279 19.11 47.1013 20.72 47.1013 23.94C47.1013 26.6 46.0279 27.93 43.8813 27.93C41.9679 27.93 41.0113 27.0667 41.0113 25.34C41.0113 24.5933 41.0813 24.0333 41.2213 23.66H39.9613C38.5613 23.66 37.4413 24.1033 36.6013 24.99C35.7613 25.8767 35.1079 26.95 34.6413 28.21C34.2213 29.47 33.9179 30.8 33.7313 32.2C33.5913 33.5533 33.4979 34.6967 33.4513 35.63V43.12C33.4513 45.64 35.2479 46.9 38.8413 46.9V49H23.0912ZM78.3114 46.06C77.6114 48.5333 75.7447 49.77 72.7114 49.77C70.0514 49.77 68.3714 48.2533 67.6714 45.22C64.3114 48.2533 60.7414 49.77 56.9614 49.77C54.4881 49.77 52.6681 49.2567 51.5014 48.23C50.3347 47.1567 49.7514 45.4767 49.7514 43.19C49.7514 37.45 55.5381 33.53 67.1114 31.43V28.7C67.1114 24.1267 65.3381 21.84 61.7914 21.84C60.2514 21.84 58.9214 22.0967 57.8014 22.61C56.6814 23.1233 56.1214 24.1033 56.1214 25.55C56.4014 25.7367 56.6114 26.04 56.7514 26.46C56.8914 26.8333 56.9614 27.23 56.9614 27.65C56.9614 29.4233 55.8881 30.31 53.7414 30.31C52.9481 30.31 52.2714 30.0533 51.7114 29.54C51.1514 29.0267 50.8714 28.2333 50.8714 27.16C50.8714 26.0867 51.1981 25.06 51.8514 24.08C52.5047 23.1 53.3447 22.26 54.3714 21.56C55.4447 20.8133 56.6581 20.23 58.0114 19.81C59.4114 19.3433 60.8347 19.11 62.2814 19.11C66.1547 19.11 68.9081 19.8333 70.5414 21.28C72.1747 22.7267 72.9914 25.13 72.9914 28.49V43.68C72.9914 45.4067 73.7847 46.27 75.3714 46.27C76.1181 46.27 76.8414 46.0133 77.5414 45.5L78.3114 46.06ZM67.3914 33.81C65.9447 33.95 64.5214 34.2067 63.1214 34.58C61.7214 34.9067 60.4614 35.3967 59.3414 36.05C58.2681 36.6567 57.3814 37.45 56.6814 38.43C56.0281 39.41 55.7014 40.6233 55.7014 42.07C55.7014 45.1033 57.1714 46.62 60.1114 46.62C61.4181 46.62 62.4914 46.4333 63.3314 46.06C64.2181 45.64 64.9181 45.1033 65.4314 44.45C65.9914 43.7967 66.4114 43.0733 66.6914 42.28C67.0181 41.4867 67.2514 40.6933 67.3914 39.9V33.81ZM80.7866 49V46.9C84.0066 46.9 85.6166 45.4767 85.6166 42.63V28.7C85.6166 25.0133 84.1932 23.17 81.3466 23.17V21.28L91.4266 19.11V42.91C91.4266 45.57 93.1999 46.9 96.7466 46.9V49H80.7866ZM87.9966 11.41C85.5232 11.41 84.2866 9.98667 84.2866 7.14C84.2866 4.48 85.6166 3.15 88.2766 3.15C90.7966 3.15 92.0566 4.48 92.0566 7.14C92.0566 9.98667 90.7032 11.41 87.9966 11.41ZM153.499 49V46.9C158.119 46.9 160.429 45.29 160.429 42.07V27.44C159.589 26.74 157.816 26.39 155.109 26.39H142.509C141.576 26.39 140.689 26.4833 139.849 26.67C139.009 26.81 138.216 27.0667 137.469 27.44V42.07C137.469 45.29 139.616 46.9 143.909 46.9V49H123.399V46.9C128.159 46.9 130.539 45.29 130.539 42.07V10.92C130.539 6.81333 128.159 4.76 123.399 4.76V2.59H143.909V4.76C139.616 4.76 137.469 6.81333 137.469 10.92V22.89C139.009 23.4033 140.689 23.66 142.509 23.66H155.109C157.722 23.66 159.496 23.4033 160.429 22.89V10.92C160.429 6.81333 158.119 4.76 153.499 4.76V2.59H173.729V4.76C169.482 4.76 167.359 6.81333 167.359 10.92V42.07C167.359 45.29 169.482 46.9 173.729 46.9V49H153.499ZM193.429 50.33C191.236 50.33 189.229 49.91 187.409 49.07C185.589 48.2767 184.026 47.2033 182.719 45.85C181.459 44.45 180.479 42.84 179.779 41.02C179.079 39.1533 178.729 37.1933 178.729 35.14C178.729 32.7133 179.126 30.52 179.919 28.56C180.712 26.5533 181.786 24.85 183.139 23.45C184.492 22.05 186.079 20.9767 187.899 20.23C189.719 19.4833 191.656 19.11 193.709 19.11C195.809 19.11 197.746 19.53 199.519 20.37C201.292 21.1633 202.809 22.26 204.069 23.66C205.376 25.0133 206.379 26.6233 207.079 28.49C207.779 30.31 208.129 32.2467 208.129 34.3C208.129 36.7733 207.732 39.0133 206.939 41.02C206.146 42.98 205.072 44.66 203.719 46.06C202.366 47.4133 200.802 48.4633 199.029 49.21C197.256 49.9567 195.389 50.33 193.429 50.33ZM193.709 47.95C195.529 47.95 196.952 47.5533 197.979 46.76C199.052 45.92 199.869 44.94 200.429 43.82C200.989 42.7 201.339 41.5333 201.479 40.32C201.666 39.1067 201.759 38.1033 201.759 37.31C201.759 35.77 201.666 34.09 201.479 32.27C201.292 30.4033 200.896 28.7 200.289 27.16C199.729 25.5733 198.889 24.2433 197.769 23.17C196.696 22.0967 195.249 21.56 193.429 21.56C191.562 21.56 190.092 21.98 189.019 22.82C187.946 23.6133 187.129 24.57 186.569 25.69C186.009 26.81 185.636 27.9767 185.449 29.19C185.309 30.4033 185.239 31.4067 185.239 32.2C185.239 33.74 185.332 35.4433 185.519 37.31C185.706 39.13 186.079 40.8333 186.639 42.42C187.246 43.96 188.109 45.2667 189.229 46.34C190.349 47.4133 191.842 47.95 193.709 47.95ZM230.797 41.86C230.517 43.0733 230.167 44.1933 229.747 45.22C229.327 46.2 228.767 47.0633 228.067 47.81C227.367 48.51 226.48 49.0467 225.407 49.42C224.38 49.84 223.143 50.05 221.697 50.05C219.41 50.05 217.59 49.5133 216.237 48.44C214.93 47.32 214.277 45.5467 214.277 43.12V23.17H209.727L210.007 21.07C212.153 20.65 213.88 19.4367 215.187 17.43C216.493 15.3767 217.427 13.02 217.987 10.36L220.157 10.08V20.51H225.687C226.34 20.51 226.923 20.4633 227.437 20.37C227.997 20.23 228.487 20.09 228.907 19.95V23.17H220.157V41.58C220.157 42.14 220.18 42.7 220.227 43.26C220.273 43.7733 220.39 44.2633 220.577 44.73C220.81 45.1967 221.16 45.57 221.627 45.85C222.093 46.13 222.747 46.27 223.587 46.27C224.94 46.27 226.153 45.8033 227.227 44.87C228.3 43.9367 228.953 42.7467 229.187 41.3L230.797 41.86ZM258.508 42.07C257.294 44.6833 255.661 46.7133 253.608 48.16C251.554 49.6067 249.128 50.33 246.328 50.33C243.994 50.33 241.941 49.9333 240.168 49.14C238.394 48.3467 236.901 47.2733 235.688 45.92C234.521 44.5667 233.634 42.9567 233.028 41.09C232.421 39.2233 232.118 37.24 232.118 35.14C232.118 33.04 232.444 31.0333 233.098 29.12C233.751 27.2067 234.661 25.5033 235.828 24.01C237.041 22.5167 238.488 21.3267 240.168 20.44C241.848 19.5533 243.714 19.11 245.768 19.11C247.028 19.11 248.334 19.2733 249.688 19.6C251.088 19.88 252.394 20.4633 253.608 21.35C254.821 22.2367 255.871 23.52 256.758 25.2C257.644 26.8333 258.228 29.0033 258.508 31.71C258.508 32.27 258.438 32.7833 258.298 33.25H239.678C238.791 33.25 238.348 33.6 238.348 34.3C238.348 35.98 238.581 37.5667 239.048 39.06C239.514 40.5533 240.168 41.86 241.008 42.98C241.848 44.1 242.874 44.9867 244.088 45.64C245.301 46.2467 246.654 46.55 248.148 46.55C250.108 46.55 251.788 45.99 253.188 44.87C254.634 43.75 255.894 42.4433 256.968 40.95L258.508 42.07ZM248.988 31.15C250.901 31.15 251.858 30.17 251.858 28.21C251.718 26.4367 251.111 24.8967 250.038 23.59C249.011 22.2367 247.494 21.56 245.488 21.56C244.414 21.56 243.434 21.8167 242.548 22.33C241.661 22.7967 240.891 23.45 240.238 24.29C239.631 25.0833 239.164 26.0167 238.838 27.09C238.511 28.1167 238.348 29.19 238.348 30.31C238.348 30.87 238.861 31.15 239.888 31.15H248.988ZM262.896 49V46.9C266.069 46.9 267.656 45.8267 267.656 43.68V8.19C267.656 5.90333 265.859 4.76 262.266 4.76V2.87L273.536 0.769999V43.96C273.536 45.92 275.309 46.9 278.856 46.9V49H262.896ZM301.182 28.49C299.035 23.6833 296.189 21.28 292.642 21.28C291.195 21.28 289.935 21.63 288.862 22.33C287.789 23.03 287.252 24.1967 287.252 25.83C287.252 26.7633 287.672 27.5567 288.512 28.21C289.399 28.8633 290.472 29.47 291.732 30.03C293.039 30.59 294.439 31.15 295.932 31.71C297.425 32.27 298.802 32.9467 300.062 33.74C301.369 34.4867 302.442 35.3967 303.282 36.47C304.169 37.5433 304.612 38.8733 304.612 40.46C304.612 41.86 304.355 43.12 303.842 44.24C303.329 45.36 302.605 46.3167 301.672 47.11C300.785 47.9033 299.735 48.5333 298.522 49C297.355 49.5133 296.119 49.8633 294.812 50.05C292.479 50.05 290.402 49.4433 288.582 48.23C287.555 49.0233 286.155 49.5367 284.382 49.77C283.635 46.3633 283.262 42.7233 283.262 38.85H285.152C285.665 40.53 286.225 41.9533 286.832 43.12C287.439 44.24 288.115 45.15 288.862 45.85C289.609 46.5033 290.449 46.97 291.382 47.25C292.315 47.53 293.365 47.67 294.532 47.67C298.405 47.67 300.342 46.1533 300.342 43.12C300.342 42.2333 300.179 41.4867 299.852 40.88C299.572 40.2267 299.105 39.69 298.452 39.27C297.845 38.8033 297.075 38.3833 296.142 38.01C295.209 37.59 294.112 37.17 292.852 36.75C291.872 36.4233 290.822 36.0267 289.702 35.56C288.582 35.0467 287.532 34.44 286.552 33.74C285.619 33.04 284.825 32.2233 284.172 31.29C283.565 30.31 283.262 29.19 283.262 27.93C283.262 26.67 283.449 25.5033 283.822 24.43C284.195 23.3567 284.755 22.4233 285.502 21.63C286.295 20.8367 287.299 20.23 288.512 19.81C289.725 19.3433 291.172 19.11 292.852 19.11C294.859 19.11 296.819 19.67 298.732 20.79C299.479 20.1833 300.389 19.7167 301.462 19.39C302.302 22.61 302.722 25.6433 302.722 28.49H301.182Z" fill="#AA6227"/>
</svg>
